<?xml version="1.0" encoding="UTF-8"?>
<svg version="1.1" xmlns="http://www.w3.org/2000/svg" width="251" height="164">
<path d="M0 0 C2.02270125 0.00532417 4.04517688 0.00004549 6.06787109 -0.00634766 C33.73966616 0.02075498 33.73966616 0.02075498 42.60302734 7.50537109 C51.23802846 17.86737243 51.09657649 28.05453505 51.05615234 40.96240234 C51.05750193 42.48695436 51.0594449 44.01150596 51.06195068 45.53605652 C51.06488368 48.71393984 51.06066047 51.89171 51.05126953 55.06958008 C51.03982718 59.13937952 51.04647601 63.20891652 51.05841446 67.27870655 C51.06564106 70.41940796 51.0633423 73.56004707 51.05815887 76.70075035 C51.05682711 78.2018404 51.05845349 79.70293615 51.06311798 81.20401955 C51.06820183 83.29786838 51.06044948 85.39129037 51.04931641 87.48510742 C51.04772522 88.67485672 51.04613403 89.86460602 51.04449463 91.09040833 C50.80091716 94.00600609 50.31666932 95.67217855 48.79052734 98.13037109 C40.21857169 97.9121037 34.475455 95.19316534 28.54052734 89.00537109 C20.10918961 77.87268622 21.13178747 64.73819862 21.04052734 51.44287109 C21.01232866 49.37318506 20.98239588 47.30352189 20.95068359 45.23388672 C20.87728208 40.19942285 20.8274244 35.16522943 20.79052734 30.13037109 C15.71852034 30.08094744 10.64665341 30.04464042 5.57446289 30.02050781 C3.84885212 30.01044783 2.12325839 29.99679833 0.39770508 29.97949219 C-2.08207406 29.95524356 -4.56162788 29.94388808 -7.04150391 29.93505859 C-7.8134761 29.92473602 -8.5854483 29.91441345 -9.3808136 29.90377808 C-13.20228741 29.90297688 -14.95083373 29.95794514 -18.20947266 32.13037109 C-18.893249 35.97661305 -18.58084626 37.59806893 -16.33447266 40.81787109 C-10.83392663 44.88827515 -4.59873011 45.90625139 2.04052734 47.06787109 C8.01490265 48.22721779 11.85184059 50.66196501 15.54052734 55.50537109 C18.83445039 60.47273415 20.3365597 65.12401514 19.79052734 71.13037109 C17.79052734 73.13037109 17.79052734 73.13037109 15.57910156 73.28149414 C14.67691895 73.23549072 13.77473633 73.1894873 12.84521484 73.14208984 C11.85005859 73.09503906 10.85490234 73.04798828 9.82958984 72.99951172 C8.78544922 72.93957031 7.74130859 72.87962891 6.66552734 72.81787109 C5.64458984 72.76953125 4.62365234 72.72119141 3.57177734 72.67138672 C-0.88446322 72.445138 -5.28393126 72.16083411 -9.70166016 71.52490234 C-12.99980011 70.94634698 -12.99980011 70.94634698 -15.32275391 71.66162109 C-20.82412676 73.0284218 -28.12379234 69.29662429 -32.85009766 66.65380859 C-40.90648658 60.87184239 -46.31649984 51.86340634 -48.20947266 42.13037109 C-49.23284019 31.65506734 -47.71447373 22.27362979 -40.93603516 14.00927734 C-28.94308228 0.95812275 -17.10118582 -0.05337705 0 0 Z " fill="#5D39F4" transform="translate(69.20947265625,30.86962890625)"/>
<path d="M0 0 C8.48474388 2.08641243 13.72055671 5.79257162 18.8125 12.9375 C23.34965872 21.10438569 22.96736126 30.53860824 22.91015625 39.6640625 C22.9087413 40.53775482 22.90732635 41.41144714 22.90586853 42.31161499 C22.90033674 45.06194703 22.88779774 47.81219318 22.875 50.5625 C22.86997616 52.44400923 22.86541481 54.32551975 22.86132812 56.20703125 C22.85038979 60.78388652 22.83317362 65.36067877 22.8125 69.9375 C25.79297765 69.94772722 28.7734193 69.9551138 31.75390625 69.9609375 C33.00089294 69.96565063 33.00089294 69.96565063 34.27307129 69.97045898 C48.64508118 70.78951964 48.64508118 70.78951964 61.8125 66.9375 C63.22691874 64.10866253 63.13150332 62.06373255 62.8125 58.9375 C59.7079814 55.8329814 56.8940607 55.45393835 52.625 55 C46.75973509 54.22546727 42.01930631 52.70908166 36.8125 49.9375 C36.8125 49.2775 36.8125 48.6175 36.8125 47.9375 C36.214375 47.834375 35.61625 47.73125 35 47.625 C32.49991714 46.83925967 31.43714918 45.96831147 29.8125 43.9375 C29.8125 43.2775 29.8125 42.6175 29.8125 41.9375 C29.1525 41.9375 28.4925 41.9375 27.8125 41.9375 C27.11161844 40.19281628 26.42725991 38.44148839 25.75 36.6875 C25.36714844 35.71296875 24.98429687 34.7384375 24.58984375 33.734375 C23.797785 30.88455557 23.72762623 29.64038552 24.8125 26.9375 C26.62962566 25.12037434 29.45202844 25.80709917 31.89453125 25.8046875 C33.13654297 25.80339844 34.37855469 25.80210938 35.65820312 25.80078125 C37.62176758 25.80658203 37.62176758 25.80658203 39.625 25.8125 C40.92244141 25.80863281 42.21988281 25.80476563 43.55664062 25.80078125 C44.80251953 25.80207031 46.04839844 25.80335937 47.33203125 25.8046875 C49.05063354 25.80637939 49.05063354 25.80637939 50.80395508 25.80810547 C53.35318745 25.91774542 55.37372451 26.2861355 57.8125 26.9375 C59.2975 26.81375 59.2975 26.81375 60.8125 26.6875 C69.42622751 26.61356242 77.793138 31.78973511 83.8359375 37.546875 C91.06920374 46.29541045 93.71975828 55.82039153 92.8125 66.9375 C90.5919941 77.97658646 86.29265801 86.12362979 77.015625 92.62109375 C65.51081302 99.49542289 53.77973359 99.1680504 40.8125 98.9375 C39.81750488 98.92493164 38.82250977 98.91236328 37.79736328 98.89941406 C34.50990681 98.85072572 31.22421078 98.77224024 27.9375 98.6875 C26.89215088 98.67348145 25.84680176 98.65946289 24.76977539 98.64501953 C16.05260247 98.36674561 7.03623437 96.50699739 0.8125 89.9375 C-3.77663612 83.11003524 -6.30489248 78.17229052 -6.34863281 69.8515625 C-6.35608017 68.77548737 -6.35608017 68.77548737 -6.36367798 67.67767334 C-6.37827687 65.30593914 -6.38509655 62.93427174 -6.390625 60.5625 C-6.39637679 58.91487628 -6.40213452 57.26725258 -6.40789795 55.61962891 C-6.41840039 52.16633797 -6.42424852 48.71307028 -6.42773438 45.25976562 C-6.4332282 40.83093079 -6.45727811 36.40240199 -6.48570633 31.97366333 C-6.50430848 28.57136122 -6.50953693 25.16913334 -6.51107025 21.76678467 C-6.51410104 20.13367025 -6.52214391 18.50055727 -6.53525543 16.86749268 C-6.55227144 14.5859018 -6.55044741 12.30506571 -6.54394531 10.0234375 C-6.54759094 8.7245459 -6.55123657 7.4256543 -6.55499268 6.08740234 C-6.1875 2.9375 -6.1875 2.9375 -4.86444092 0.99072266 C-3.1875 -0.0625 -3.1875 -0.0625 0 0 Z " fill="#22D8A0" transform="translate(132.1875,31.0625)"/>
<path d="M0 0 C2.02270125 0.00532417 4.04517688 0.00004549 6.06787109 -0.00634766 C33.73966616 0.02075498 33.73966616 0.02075498 42.60302734 7.50537109 C51.23802846 17.86737243 51.09657649 28.05453505 51.05615234 40.96240234 C51.05750193 42.48695436 51.0594449 44.01150596 51.06195068 45.53605652 C51.06488368 48.71393984 51.06066047 51.89171 51.05126953 55.06958008 C51.03982718 59.13937952 51.04647601 63.20891652 51.05841446 67.27870655 C51.06564106 70.41940796 51.0633423 73.56004707 51.05815887 76.70075035 C51.05682711 78.2018404 51.05845349 79.70293615 51.06311798 81.20401955 C51.06820183 83.29786838 51.06044948 85.39129037 51.04931641 87.48510742 C51.04772522 88.67485672 51.04613403 89.86460602 51.04449463 91.09040833 C50.80091716 94.00600609 50.31666932 95.67217855 48.79052734 98.13037109 C43.32475 98.21893693 39.67622577 97.5251347 35.47802734 93.88037109 C34.22482666 92.65446785 32.99263622 91.40641378 31.79052734 90.13037109 C31.04802734 89.34662109 30.30552734 88.56287109 29.54052734 87.75537109 C24.66772438 80.44616665 23.20504224 74.07113324 23.25146484 65.35693359 C23.23967194 64.35254242 23.22787903 63.34815125 23.21572876 62.31332397 C23.18068764 59.12717992 23.17132592 55.9416914 23.16552734 52.75537109 C23.149081 49.5763905 23.12680589 46.3976956 23.09390259 43.21884155 C23.074572 41.24986082 23.06490437 39.28075054 23.06698608 37.31167603 C22.96575338 24.05780965 20.33885737 15.2617252 11.79052734 5.13037109 C12.12052734 4.47037109 12.45052734 3.81037109 12.79052734 3.13037109 C17.41052734 3.13037109 22.03052734 3.13037109 26.79052734 3.13037109 C2.53552734 2.63537109 2.53552734 2.63537109 -22.20947266 2.13037109 C-22.20947266 1.80037109 -22.20947266 1.47037109 -22.20947266 1.13037109 C-14.79177639 0.1010432 -7.48386871 -0.02335901 0 0 Z " fill="#6643FA" transform="translate(69.20947265625,30.86962890625)"/>
<path d="M0 0 C7.92995945 -0.51717127 15.08918499 1.04445854 21.3125 6.1875 C27.15036339 11.76590279 31.90109284 18.88803523 32.3359375 27.109375 C32.36582108 28.65601613 32.37819217 30.20307349 32.375 31.75 C32.37338867 32.55405273 32.37177734 33.35810547 32.37011719 34.18652344 C32.24501959 40.23290716 31.31576051 44.85366337 28 50 C27.4225 51.051875 26.845 52.10375 26.25 53.1875 C22.57744522 57.77819348 17.85503021 60.76331319 13 64 C10.30078125 64.1953125 10.30078125 64.1953125 7.3125 64.125 C6.31863281 64.10695313 5.32476562 64.08890625 4.30078125 64.0703125 C3.54152344 64.04710938 2.78226563 64.02390625 2 64 C2 64.66 2 65.32 2 66 C-1.87474457 66.11668214 -5.74903396 66.18741231 -9.625 66.25 C-10.71941406 66.28351563 -11.81382812 66.31703125 -12.94140625 66.3515625 C-19.38825347 66.4297061 -23.04298298 66.20303708 -28 62 C-28.99 61.67 -29.98 61.34 -31 61 C-32.3515625 58.99609375 -32.3515625 58.99609375 -33.625 56.4375 C-34.05039063 55.61121094 -34.47578125 54.78492188 -34.9140625 53.93359375 C-36.27790276 50.2492627 -36.62467445 46.90755597 -37 43 C-7.86097406 41.80611597 -7.86097406 41.80611597 5 42 C5.309375 41.360625 5.61875 40.72125 5.9375 40.0625 C7 38 7 38 8 37 C8.23820921 34.96729438 8.23820921 34.96729438 8.25 32.625 C8.28867188 31.43777344 8.28867188 31.43777344 8.328125 30.2265625 C7.92692127 27.50410864 6.99795202 26.79815682 5 25 C5 24.34 5 23.68 5 23 C3.35 23 1.7 23 0 23 C-0.66 19.37 -1.32 15.74 -2 12 C-2.33 13.65 -2.66 15.3 -3 17 C-4.65 17 -6.3 17 -8 17 C-7.34 16.67 -6.68 16.34 -6 16 C-6.66 14.02 -7.32 12.04 -8 10 C-7 9 -7 9 -3.9375 8.9375 C-2.4834375 8.9684375 -2.4834375 8.9684375 -1 9 C-0.67 6.03 -0.34 3.06 0 0 Z " fill="#21D19B" transform="translate(191,61)"/>
<path d="M0 0 C8.48474388 2.08641243 13.72055671 5.79257162 18.8125 12.9375 C23.34965872 21.10438569 22.96736126 30.53860824 22.91015625 39.6640625 C22.9087413 40.53775482 22.90732635 41.41144714 22.90586853 42.31161499 C22.90033674 45.06194703 22.88779774 47.81219318 22.875 50.5625 C22.86997616 52.44400923 22.86541481 54.32551975 22.86132812 56.20703125 C22.85038979 60.78388652 22.83317362 65.36067877 22.8125 69.9375 C25.79297765 69.94772722 28.7734193 69.9551138 31.75390625 69.9609375 C33.00089294 69.96565063 33.00089294 69.96565063 34.27307129 69.97045898 C48.64508118 70.78951964 48.64508118 70.78951964 61.8125 66.9375 C63.22691874 64.10866253 63.13150332 62.06373255 62.8125 58.9375 C59.7079814 55.8329814 56.8940607 55.45393835 52.625 55 C46.75973509 54.22546727 42.01930631 52.70908166 36.8125 49.9375 C36.8125 49.2775 36.8125 48.6175 36.8125 47.9375 C36.214375 47.834375 35.61625 47.73125 35 47.625 C32.49991714 46.83925967 31.43714918 45.96831147 29.8125 43.9375 C29.8125 43.2775 29.8125 42.6175 29.8125 41.9375 C29.1525 41.9375 28.4925 41.9375 27.8125 41.9375 C27.11161844 40.19281628 26.42725991 38.44148839 25.75 36.6875 C25.36714844 35.71296875 24.98429687 34.7384375 24.58984375 33.734375 C23.797785 30.88455557 23.72762623 29.64038552 24.8125 26.9375 C26.62962566 25.12037434 29.45202844 25.80709917 31.89453125 25.8046875 C33.13654297 25.80339844 34.37855469 25.80210938 35.65820312 25.80078125 C37.62176758 25.80658203 37.62176758 25.80658203 39.625 25.8125 C40.92244141 25.80863281 42.21988281 25.80476563 43.55664062 25.80078125 C44.80251953 25.80207031 46.04839844 25.80335937 47.33203125 25.8046875 C49.05063354 25.80637939 49.05063354 25.80637939 50.80395508 25.80810547 C53.35318745 25.91774542 55.37372451 26.2861355 57.8125 26.9375 C59.2975 26.81375 59.2975 26.81375 60.8125 26.6875 C69.42622751 26.61356242 77.793138 31.78973511 83.8359375 37.546875 C91.06920374 46.29541045 93.71975828 55.82039153 92.8125 66.9375 C90.5919941 77.97658646 86.29265801 86.12362979 77.015625 92.62109375 C65.51081302 99.49542289 53.77973359 99.1680504 40.8125 98.9375 C39.81750488 98.92493164 38.82250977 98.91236328 37.79736328 98.89941406 C34.50990681 98.85072572 31.22421078 98.77224024 27.9375 98.6875 C26.89215088 98.67348145 25.84680176 98.65946289 24.76977539 98.64501953 C16.05260247 98.36674561 7.03623437 96.50699739 0.8125 89.9375 C-3.77663612 83.11003524 -6.30489248 78.17229052 -6.34863281 69.8515625 C-6.35608017 68.77548737 -6.35608017 68.77548737 -6.36367798 67.67767334 C-6.37827687 65.30593914 -6.38509655 62.93427174 -6.390625 60.5625 C-6.39637679 58.91487628 -6.40213452 57.26725258 -6.40789795 55.61962891 C-6.41840039 52.16633797 -6.42424852 48.71307028 -6.42773438 45.25976562 C-6.4332282 40.83093079 -6.45727811 36.40240199 -6.48570633 31.97366333 C-6.50430848 28.57136122 -6.50953693 25.16913334 -6.51107025 21.76678467 C-6.51410104 20.13367025 -6.52214391 18.50055727 -6.53525543 16.86749268 C-6.55227144 14.5859018 -6.55044741 12.30506571 -6.54394531 10.0234375 C-6.54759094 8.7245459 -6.55123657 7.4256543 -6.55499268 6.08740234 C-6.1875 2.9375 -6.1875 2.9375 -4.86444092 0.99072266 C-3.1875 -0.0625 -3.1875 -0.0625 0 0 Z M-4.1875 3.9375 C-4.31358824 6.17901284 -4.36837824 8.42455013 -4.39624023 10.66943359 C-4.40602402 11.37367462 -4.4158078 12.07791565 -4.42588806 12.80349731 C-4.45593363 15.14762474 -4.47726563 17.49169405 -4.49609375 19.8359375 C-4.50266558 20.63770039 -4.5092374 21.43946327 -4.51600838 22.265522 C-4.54865957 26.51863082 -4.57308287 30.77171419 -4.5925293 35.02490234 C-4.61026377 38.53244109 -4.64494643 42.03916388 -4.69506836 45.54638672 C-4.75561758 49.78814409 -4.7860543 54.02915141 -4.79570198 58.27132034 C-4.80420886 59.88114765 -4.822908 61.49095756 -4.8524456 63.10053635 C-5.03651999 73.71246592 -4.12903725 82.40405691 3.35719299 90.63607788 C8.40926518 95.17593899 13.38566176 96.19357534 20.00390625 96.54296875 C20.69899796 96.57988327 21.39408966 96.61679779 22.11024475 96.65483093 C29.56269527 97.02337667 37.01777444 97.19313868 44.47875977 97.23266602 C46.00554574 97.24431836 47.53228702 97.2649724 49.05883789 97.29418945 C61.46204888 97.55645553 61.46204888 97.55645553 72.8125 92.9375 C73.885 92.2775 74.9575 91.6175 76.0625 90.9375 C77.42375 89.9475 77.42375 89.9475 78.8125 88.9375 C80.1428125 87.9784375 80.1428125 87.9784375 81.5 87 C84.02661606 84.74653162 85.2728796 82.94980079 86.8125 79.9375 C87.16570312 79.380625 87.51890625 78.82375 87.8828125 78.25 C92.14295701 70.62344759 91.94097389 61.41207836 90.8125 52.9375 C89.69301667 49.10743788 88.15470186 46.15264849 85.8125 42.9375 C85.33167969 42.27363281 84.85085937 41.60976562 84.35546875 40.92578125 C79.3824782 34.66689868 73.71852101 31.12112695 65.8125 29.9375 C63.44798901 29.80340675 61.18362171 29.83870326 58.8125 29.9375 C58.4825 32.9075 58.1525 35.8775 57.8125 38.9375 C55.8325 38.9375 53.8525 38.9375 51.8125 38.9375 C51.60168149 42.83209074 51.60168149 42.83209074 52.8125 45.9375 C51.8225 46.4325 51.8225 46.4325 50.8125 46.9375 C52.4625 46.9375 54.1125 46.9375 55.8125 46.9375 C56.1425 45.2875 56.4725 43.6375 56.8125 41.9375 C57.4725 45.5675 58.1325 49.1975 58.8125 52.9375 C60.7925 52.9375 62.7725 52.9375 64.8125 52.9375 C64.4825 53.9275 64.1525 54.9175 63.8125 55.9375 C65.2975 56.9275 65.2975 56.9275 66.8125 57.9375 C67.2109375 59.99609375 67.2109375 59.99609375 67.1875 62.375 C67.19910156 63.54869141 67.19910156 63.54869141 67.2109375 64.74609375 C66.72796348 67.40245085 65.76958904 68.16162291 63.8125 69.9375 C63.8125 70.5975 63.8125 71.2575 63.8125 71.9375 C63.05453125 71.92589844 62.2965625 71.91429688 61.515625 71.90234375 C47.93691021 71.79481999 34.37842543 72.40355381 20.8125 72.9375 C20.82360306 72.30824615 20.83470612 71.67899231 20.84614563 71.03067017 C20.95730653 64.44393193 21.03240156 57.85746289 21.0871582 51.27001953 C21.11220445 48.81613327 21.14625133 46.36232087 21.18969727 43.90869141 C21.25078239 40.368629 21.27881012 36.8295583 21.30078125 33.2890625 C21.32658768 32.20323883 21.3523941 31.11741516 21.37898254 29.99868774 C21.38206701 21.50191763 19.30357907 14.91921721 13.64453125 8.46484375 C12.97808594 7.94019531 12.31164062 7.41554688 11.625 6.875 C10.95082031 6.32714844 10.27664062 5.77929688 9.58203125 5.21484375 C6.64007289 3.09117844 4.83661102 2.800986 1.25 2.8125 C0.44433594 2.80992188 -0.36132812 2.80734375 -1.19140625 2.8046875 C-3.18692021 2.71738609 -3.18692021 2.71738609 -4.1875 3.9375 Z " fill="#68CDAD" transform="translate(132.1875,31.0625)"/>
<path d="M0 0 C8.48474388 2.08641243 13.72055671 5.79257162 18.8125 12.9375 C23.34965872 21.10438569 22.96736126 30.53860824 22.91015625 39.6640625 C22.9087413 40.53775482 22.90732635 41.41144714 22.90586853 42.31161499 C22.90033674 45.06194703 22.88779774 47.81219318 22.875 50.5625 C22.86997616 52.44400923 22.86541481 54.32551975 22.86132812 56.20703125 C22.85038979 60.78388652 22.83317362 65.36067877 22.8125 69.9375 C25.79297765 69.94772722 28.7734193 69.9551138 31.75390625 69.9609375 C33.00089294 69.96565063 33.00089294 69.96565063 34.27307129 69.97045898 C48.64508118 70.78951964 48.64508118 70.78951964 61.8125 66.9375 C63.22691874 64.10866253 63.13150332 62.06373255 62.8125 58.9375 C59.63176503 55.71788074 56.44508447 55.31973598 52.0625 54.75 C50.89203125 54.59144531 49.7215625 54.43289062 48.515625 54.26953125 C47.62359375 54.15996094 46.7315625 54.05039063 45.8125 53.9375 C45.8125 53.6075 45.8125 53.2775 45.8125 52.9375 C52.50043677 52.69864512 58.20607192 53.13428596 64.3125 56.1875 C65.8125 57.9375 65.8125 57.9375 66.3125 60.75 C65.69715295 64.67283746 64.25814595 66.84447718 61.8125 69.9375 C54.07383689 73.80683156 40.89701882 72.04084426 32.4375 72.0625 C30.89412964 72.06938843 30.89412964 72.06938843 29.31958008 72.07641602 C28.36075928 72.07440186 27.40193848 72.0723877 26.4140625 72.0703125 C25.55119629 72.06918457 24.68833008 72.06805664 23.79931641 72.06689453 C21.8125 71.9375 21.8125 71.9375 20.8125 70.9375 C20.71594023 69.42510485 20.68734373 67.90829651 20.68652344 66.39282227 C20.68081329 64.93979454 20.68081329 64.93979454 20.67498779 63.45741272 C20.67396057 62.40025558 20.67293335 61.34309845 20.671875 60.25390625 C20.65353196 58.02407845 20.6339603 55.79426048 20.61328125 53.56445312 C20.58441927 50.04255814 20.56250297 46.52128812 20.56201172 42.99926758 C20.55865641 39.60441402 20.52396218 36.21100681 20.484375 32.81640625 C20.4914447 31.77746719 20.4985144 30.73852814 20.50579834 29.66810608 C20.37485485 21.71473536 18.55851839 14.8281255 12.91082764 8.9624176 C9.00977794 5.49478454 6.4819063 3.79936562 1.1875 3.875 C0.37023437 3.88402344 -0.44703125 3.89304688 -1.2890625 3.90234375 C-1.91554687 3.91394531 -2.54203125 3.92554688 -3.1875 3.9375 C-3.32710981 13.39577416 -3.43342748 22.85368847 -3.49837303 32.3127718 C-3.52955907 36.70603898 -3.57179492 41.09859632 -3.64013672 45.49145508 C-3.70578931 49.73850062 -3.74130152 53.98486761 -3.75676346 58.23238182 C-3.76776829 59.84502011 -3.78925694 61.45762526 -3.82188034 63.06997108 C-4.03112632 73.84965572 -2.93734162 82.16069639 4.31362915 90.70674133 C5.76099477 92.24578078 5.76099477 92.24578078 7.8125 93.9375 C3.01143218 92.80783698 1.04205033 90.07681247 -1.7578125 86.30078125 C-5.24302628 80.53970382 -6.56317961 76.15562764 -6.57568359 69.39746094 C-6.58094055 68.67949341 -6.58619751 67.96152588 -6.59161377 67.22180176 C-6.60471479 64.87159863 -6.59611528 62.52208382 -6.5859375 60.171875 C-6.5879602 58.52996695 -6.59087328 56.88805977 -6.59463501 55.24615479 C-6.59904415 51.81668486 -6.59266967 48.38745028 -6.57861328 44.95800781 C-6.56146788 40.5606211 -6.57140498 36.16378159 -6.58933067 31.76641464 C-6.60016068 28.38124449 -6.59672675 24.99620461 -6.5889473 21.61103058 C-6.58694591 19.98909693 -6.58940242 18.36715147 -6.59638596 16.74523163 C-6.60399372 14.48315444 -6.59240932 12.22197139 -6.57568359 9.95996094 C-6.57329681 8.67313416 -6.57091003 7.38630737 -6.56845093 6.06048584 C-6.1875 2.9375 -6.1875 2.9375 -4.86245728 0.99468994 C-3.1875 -0.0625 -3.1875 -0.0625 0 0 Z " fill="#E3F3EE" transform="translate(132.1875,31.0625)"/>
<path d="M0 0 C1.24201172 -0.00128906 2.48402344 -0.00257812 3.76367188 -0.00390625 C5.72723633 0.00189453 5.72723633 0.00189453 7.73046875 0.0078125 C9.02791016 0.00394531 10.32535156 0.00007813 11.66210938 -0.00390625 C12.90798828 -0.00261719 14.15386719 -0.00132813 15.4375 0 C17.15610229 0.00169189 17.15610229 0.00169189 18.90942383 0.00341797 C21.4586562 0.11305792 23.47919326 0.481448 25.91796875 1.1328125 C26.90796875 1.0503125 27.89796875 0.9678125 28.91796875 0.8828125 C37.53169626 0.80887492 45.89860675 5.98504761 51.94140625 11.7421875 C59.17467249 20.49072295 61.82522703 30.01570403 60.91796875 41.1328125 C58.69746285 52.17189896 54.39812676 60.31894229 45.12109375 66.81640625 C33.6272688 73.68417045 21.87745175 73.38442923 8.91796875 73.1328125 C7.91233887 73.11492676 6.90670898 73.09704102 5.87060547 73.07861328 C2.5523299 73.0107113 -0.76452914 72.91872018 -4.08203125 72.8203125 C-5.14413818 72.79791504 -6.20624512 72.77551758 -7.30053711 72.75244141 C-13.54236872 72.53474318 -18.37212774 71.69266107 -24.08203125 69.1328125 C-22.14453125 68.5703125 -22.14453125 68.5703125 -20.08203125 68.1328125 C-19.75203125 68.4628125 -19.42203125 68.7928125 -19.08203125 69.1328125 C-8.58322411 70.21353395 2.0365768 70.37209843 12.58422852 70.42797852 C14.11101449 70.43963086 15.63775577 70.4602849 17.16430664 70.48950195 C29.56889782 70.75473153 29.56889782 70.75473153 40.91796875 66.1328125 C42.01109375 65.4521875 43.10421875 64.7715625 44.23046875 64.0703125 C45.56078125 63.11125 45.56078125 63.11125 46.91796875 62.1328125 C47.63984375 61.6584375 48.36171875 61.1840625 49.10546875 60.6953125 C51.41421006 58.70501826 52.50229673 56.84618388 53.91796875 54.1328125 C54.27246094 53.57464844 54.62695312 53.01648438 54.9921875 52.44140625 C59.24137338 44.82269051 59.06074373 35.59773832 57.91796875 27.1328125 C56.77610292 23.328153 55.230377 20.34731407 52.91796875 17.1328125 C52.510625 16.54242188 52.10328125 15.95203125 51.68359375 15.34375 C47.08162959 9.27752452 39.99106048 4.97562646 32.47265625 3.7265625 C30.28812516 3.48003235 28.11142695 3.27705352 25.91796875 3.1328125 C25.91796875 3.7928125 25.91796875 4.4528125 25.91796875 5.1328125 C23.93796875 5.1328125 21.95796875 5.1328125 19.91796875 5.1328125 C20.41296875 6.6178125 20.41296875 6.6178125 20.91796875 8.1328125 C19.92796875 8.4628125 18.93796875 8.7928125 17.91796875 9.1328125 C17.42296875 5.6678125 17.42296875 5.6678125 16.91796875 2.1328125 C15.59796875 1.8028125 14.27796875 1.4728125 12.91796875 1.1328125 C12.58796875 1.7928125 12.25796875 2.4528125 11.91796875 3.1328125 C10.59796875 3.1328125 9.27796875 3.1328125 7.91796875 3.1328125 C7.91796875 2.4728125 7.91796875 1.8128125 7.91796875 1.1328125 C7.15484375 1.4834375 6.39171875 1.8340625 5.60546875 2.1953125 C2.91796875 3.1328125 2.91796875 3.1328125 -0.08203125 2.1328125 C-1.74824741 2.09406329 -3.41597297 2.0877839 -5.08203125 2.1328125 C-4.93765625 2.73609375 -4.79328125 3.339375 -4.64453125 3.9609375 C-4.45890625 4.76015625 -4.27328125 5.559375 -4.08203125 6.3828125 C-3.89640625 7.17171875 -3.71078125 7.960625 -3.51953125 8.7734375 C-3.08203125 11.1328125 -3.08203125 11.1328125 -3.08203125 15.1328125 C-2.09203125 15.4628125 -1.10203125 15.7928125 -0.08203125 16.1328125 C-0.41203125 17.1228125 -0.74203125 18.1128125 -1.08203125 19.1328125 C-1.41203125 18.1428125 -1.74203125 17.1528125 -2.08203125 16.1328125 C-2.74203125 16.1328125 -3.40203125 16.1328125 -4.08203125 16.1328125 C-4.78291281 14.38812878 -5.46727134 12.63680089 -6.14453125 10.8828125 C-6.52738281 9.90828125 -6.91023438 8.93375 -7.3046875 7.9296875 C-8.09674625 5.07986807 -8.16690502 3.83569802 -7.08203125 1.1328125 C-5.26490559 -0.68431316 -2.44250281 0.00241167 0 0 Z " fill="#E9F7F3" transform="translate(164.08203125,56.8671875)"/>
<path d="M0 0 C2.88435938 0 5.42179168 -0.12290556 8.25 -0.5 C9.4875 -0.665 10.725 -0.83 12 -1 C12.6875 1.1875 12.6875 1.1875 13 4 C11.5625 6.625 11.5625 6.625 10 9 C10 9.99 10 10.98 10 12 C10.99 12.33 11.98 12.66 13 13 C12.67 13.99 12.34 14.98 12 16 C8.62294375 15.46274105 5.303314 14.88935377 2 14 C2.66 15.65 3.32 17.3 4 19 C5.32 18.67 6.64 18.34 8 18 C8 19.32 8 20.64 8 22 C6.02 22 4.04 22 2 22 C1.67 21.01 1.34 20.02 1 19 C-0.93618425 18.32843384 -0.93618425 18.32843384 -3 18 C-5 17 -5 17 -6 14 C-6.66 13.67 -7.32 13.34 -8 13 C-9.9022844 8.56133639 -10.19188324 4.79708091 -10 0 C-6.26172028 -0.96127193 -3.73662428 -0.86229791 0 0 Z " fill="#57B391" transform="translate(169,59)"/>
<path d="M0 0 C5.2518167 -0.315109 8.54814877 0.1310292 13 3 C17.0464893 7.27129426 18.89329504 10.86590088 19.1875 16.75 C19 20 19 20 18 21 C16.43576568 21.01665074 14.87064994 20.96308892 13.30859375 20.87890625 C11.89223633 20.80639648 11.89223633 20.80639648 10.44726562 20.73242188 C9.45404297 20.67634766 8.46082031 20.62027344 7.4375 20.5625 C6.44041016 20.51029297 5.44332031 20.45808594 4.41601562 20.40429688 C1.94372478 20.2741763 -0.5282063 20.13919819 -3 20 C-3.66 18.68 -4.32 17.36 -5 16 C-5.66 16 -6.32 16 -7 16 C-6.34 14.68 -5.68 13.36 -5 12 C-4.67 13.32 -4.34 14.64 -4 16 C-3.01 15.67 -2.02 15.34 -1 15 C-1 15.99 -1 16.98 -1 18 C0.98 18 2.96 18 5 18 C5 17.34 5 16.68 5 16 C3.35 15.67 1.7 15.34 0 15 C0 14.34 0 13.68 0 13 C0.66 13 1.32 13 2 13 C2 12.34 2 11.68 2 11 C1.01 10.67 0.02 10.34 -1 10 C-0.34 10 0.32 10 1 10 C1.33 9.01 1.66 8.02 2 7 C2 7.66 2 8.32 2 9 C2.66 8.67 3.32 8.34 4 8 C4 6.35 4 4.7 4 3 C3.34 3 2.68 3 2 3 C2 3.66 2 4.32 2 5 C1.34 5 0.68 5 0 5 C0 3.35 0 1.7 0 0 Z " fill="#5A3ED1" transform="translate(68,81)"/>
<path d="M0 0 C1.79408332 0.6180287 3.58520478 1.24466081 5.375 1.875 C6.87160156 2.39707031 6.87160156 2.39707031 8.3984375 2.9296875 C11 4 11 4 13 6 C13 7.32 13 8.64 13 10 C13.99 10 14.98 10 16 10 C16 10.66 16 11.32 16 12 C16.66 12 17.32 12 18 12 C18 11.34 18 10.68 18 10 C18.66 10 19.32 10 20 10 C20.33 12.97 20.66 15.94 21 19 C20.67 18.01 20.34 17.02 20 16 C19.01 16.33 18.02 16.66 17 17 C17.33 17.99 17.66 18.98 18 20 C17.34 20 16.68 20 16 20 C16 20.66 16 21.32 16 22 C17.65 22.33 19.3 22.66 21 23 C21 23.66 21 24.32 21 25 C18.125 25.625 18.125 25.625 15 26 C12 23 12 23 11 20 C10.34 20.99 9.68 21.98 9 23 C9.66 23 10.32 23 11 23 C11.33 23.99 11.66 24.98 12 26 C9.45886142 26.22333047 6.91827416 26.42902091 4.375 26.625 C3.66214844 26.68945312 2.94929688 26.75390625 2.21484375 26.8203125 C-2.34488399 27.15497142 -5.68688582 26.78239103 -10 25 C-6.53777385 23.93276039 -3.35960734 23.89826514 0.25 23.9375 C1.32765625 23.94652344 2.4053125 23.95554687 3.515625 23.96484375 C4.33546875 23.97644531 5.1553125 23.98804687 6 24 C5.67 22.948125 5.34 21.89625 5 20.8125 C4.15437839 17.5885676 3.81283136 15.27545116 4 12 C4 11.34 4 10.68 4 10 C4.32205743 7.66508361 4.65458149 5.33157492 5 3 C4.01 3 3.02 3 2 3 C2 3.66 2 4.32 2 5 C1.01 4.67 0.02 4.34 -1 4 C-0.34 4 0.32 4 1 4 C0.67 2.68 0.34 1.36 0 0 Z " fill="#5E3FE5" transform="translate(52,74)"/>
<path d="M0 0 C1.17572875 2.3514575 1.1185278 3.73119068 1.11010742 6.35107422 C1.11068649 7.2531662 1.11126556 8.15525818 1.11186218 9.08468628 C1.10869743 10.55483688 1.10869743 10.55483688 1.10546875 12.0546875 C1.11893917 14.13542694 1.1339649 16.21615679 1.15039062 18.296875 C1.17310029 21.5729266 1.18760384 24.8479048 1.17504883 28.12402344 C0.77407062 47.0663783 0.77407062 47.0663783 9.94165039 63.02978516 C12.00444963 64.92459823 12.00444963 64.92459823 15 67 C14.01 67.495 14.01 67.495 13 68 C7.37826163 63.63360127 3.53186818 59.70569049 1 53 C0.66226563 52.17749756 0.32453125 51.35499512 -0.0234375 50.50756836 C-1.30809784 45.89338959 -1.35492585 41.55778663 -1.4140625 36.7890625 C-1.43342865 35.82092621 -1.4527948 34.85278992 -1.4727478 33.85531616 C-1.5322833 30.7786323 -1.5788247 27.70191049 -1.625 24.625 C-1.66320373 22.53253623 -1.70225685 20.44008778 -1.7421875 18.34765625 C-1.83796345 13.23189604 -1.92209042 8.11606224 -2 3 C-7.05369645 2.95051367 -12.10725142 2.91423955 -17.16113281 2.89013672 C-18.87990781 2.8800873 -20.59866575 2.86644555 -22.31738281 2.84912109 C-24.78975641 2.82482609 -27.26190369 2.81350632 -29.734375 2.8046875 C-30.50118591 2.79436493 -31.26799683 2.78404236 -32.05804443 2.77340698 C-35.85956767 2.77260988 -38.77864518 2.85490428 -42 5 C-41.67 4.01 -41.34 3.02 -41 2 C-40.34 2 -39.68 2 -39 2 C-39 1.34 -39 0.68 -39 0 C-34.08891375 -0.16789062 -29.17766238 -0.3284207 -24.26611328 -0.48217773 C-22.59580028 -0.53549939 -20.92554986 -0.59082081 -19.25537109 -0.64819336 C-16.85267629 -0.73037953 -14.4498472 -0.80533723 -12.046875 -0.87890625 C-11.30193787 -0.90594131 -10.55700073 -0.93297638 -9.78948975 -0.96083069 C-2.85912636 -1.15967382 -2.85912636 -1.15967382 0 0 Z " fill="#DEDAF0" transform="translate(92,58)"/>
<path d="M0 0 C0.33 0 0.66 0 1 0 C1.390625 1.98567708 1.78125 3.97135417 2.171875 5.95703125 C3.26390867 8.65105771 4.52925051 9.50707363 7 11 C9.22951053 11.92216745 9.22951053 11.92216745 11.625 12.5625 C12.49898437 12.81257813 13.37296875 13.06265625 14.2734375 13.3203125 C16.92320499 13.98085626 19.5596432 14.47420593 22.25 14.9375 C28.22437531 16.0968467 32.06131325 18.53159392 35.75 23.375 C39.04392305 28.34236305 40.54603236 32.99364404 40 39 C38 41 38 41 35.78857422 41.15112305 C34.8863916 41.10511963 33.98420898 41.05911621 33.0546875 41.01171875 C32.05953125 40.96466797 31.064375 40.91761719 30.0390625 40.86914062 C28.99492188 40.80919922 27.95078125 40.74925781 26.875 40.6875 C25.8540625 40.63916016 24.833125 40.59082031 23.78125 40.54101562 C19.32500943 40.31476691 14.9255414 40.03046302 10.5078125 39.39453125 C7.38956969 39.04381574 5.89644688 39.17335919 3 40 C0.24667526 39.56288458 -2.30931953 38.76235947 -5 38 C-1.22305916 36.7890724 2.51490263 36.84952563 6.4375 36.875 C7.16380615 36.87693359 7.8901123 36.87886719 8.63842773 36.88085938 C18.10226487 36.95248728 27.55222184 37.47690111 37 38 C37.17128741 31.10772104 35.7786615 26.14625084 31 21 C27.1591232 18.97287058 23.28229593 18.50379952 19 18 C19 18.99 19 19.98 19 21 C18.01 21 17.02 21 16 21 C15.77054688 20.21753906 15.54109375 19.43507813 15.3046875 18.62890625 C14.24022329 15.85289978 14.24022329 15.85289978 11.7578125 14.77734375 C10.88898437 14.50019531 10.02015625 14.22304687 9.125 13.9375 C2.04707692 11.34976222 2.04707692 11.34976222 0 8 C-0.30747892 5.24329246 -0.18606117 2.79091755 0 0 Z " fill="#E9E6F3" transform="translate(49,63)"/>
<path d="M0 0 C1.41623216 -0.05447047 2.83308191 -0.09300508 4.25 -0.125 C5.03890625 -0.14820313 5.8278125 -0.17140625 6.640625 -0.1953125 C9.20731941 0.0171622 10.7916067 0.71345895 13 2 C10.2780754 3.3609623 8.8168043 2.70366248 5.875 2.0625 C4.96492188 1.86785156 4.05484375 1.67320313 3.1171875 1.47265625 C2.41851562 1.31667969 1.71984375 1.16070312 1 1 C0.67 3.97 0.34 6.94 0 10 C-1.98 10.33 -3.96 10.66 -6 11 C-6 12.65 -6 14.3 -6 16 C-6.66 16.33 -7.32 16.66 -8 17 C-8.33 17.99 -8.66 18.98 -9 20 C-9.99 20 -10.98 20 -12 20 C-12 21.32 -12 22.64 -12 24 C-15.73487777 23.5020163 -17.81237635 23.12508244 -21 21 C-21 20.34 -21 19.68 -21 19 C-21.639375 18.87625 -22.27875 18.7525 -22.9375 18.625 C-23.9584375 18.315625 -23.9584375 18.315625 -25 18 C-25.33 17.34 -25.66 16.68 -26 16 C-23.97954558 16.60183749 -21.97888961 17.27306096 -20 18 C-19.67 18.66 -19.34 19.32 -19 20 C-15.97065509 20.65772428 -15.97065509 20.65772428 -13 21 C-13 19.68 -13 18.36 -13 17 C-14.65 17.66 -16.3 18.32 -18 19 C-18.66 16.69 -19.32 14.38 -20 12 C-19.29875 12.144375 -18.5975 12.28875 -17.875 12.4375 C-14.92443859 13.01478375 -11.96729849 13.51695141 -9 14 C-8.67 13.34 -8.34 12.68 -8 12 C-9.32 11.67 -10.64 11.34 -12 11 C-12 9.02 -12 7.04 -12 5 C-10.68 4.34 -9.36 3.68 -8 3 C-8 3.99 -8 4.98 -8 6 C-7.34 5.34 -6.68 4.68 -6 4 C-6.33 3.01 -6.66 2.02 -7 1 C-4.69 1.33 -2.38 1.66 0 2 C0 1.34 0 0.68 0 0 Z " fill="#B3DCCD" transform="translate(190,60)"/>
<path d="M0 0 C4.92047962 4.42843166 6.09989122 8.57681657 7 15 C7.09343592 17.31584177 7.13790384 19.63394593 7.14526367 21.95166016 C7.15030159 22.95283119 7.15030159 22.95283119 7.15544128 23.97422791 C7.16487774 26.16252543 7.16689021 28.35074595 7.16796875 30.5390625 C7.17118471 32.06790193 7.17454903 33.59674105 7.17805481 35.12557983 C7.18402653 38.32135736 7.18589655 41.51710791 7.18530273 44.71289062 C7.18520083 48.80629782 7.19889085 52.89953267 7.21607494 56.99289894 C7.22719103 60.14646195 7.22922212 63.29998309 7.22869301 66.45356369 C7.22987226 67.96303276 7.23429095 69.47250295 7.24202538 70.98195267 C7.2518243 73.0904684 7.24894861 75.19860709 7.24291992 77.30712891 C7.24434494 78.50592682 7.24576996 79.70472473 7.24723816 80.93984985 C7.01047857 83.87030315 6.53637223 85.53246352 5 88 C3.54077307 87.88590407 2.08259402 87.75834456 0.625 87.625 C-0.18710938 87.55539063 -0.99921875 87.48578125 -1.8359375 87.4140625 C-4 87 -4 87 -6 85 C-2.37 85.33 1.26 85.66 5 86 C4.89192575 77.32380801 4.77918323 68.64769236 4.66066074 59.97163677 C4.60575487 55.9419724 4.55239095 51.9123005 4.50268555 47.88256836 C4.45455955 43.98566432 4.40220739 40.0888369 4.34705925 36.19202614 C4.32685171 34.71348825 4.30810648 33.23492954 4.29092598 31.75635338 C5.05860372 16.11185554 5.05860372 16.11185554 0 2 C0 1.34 0 0.68 0 0 Z " fill="#D7D1EF" transform="translate(113,41)"/>
<path d="M0 0 C0.33 0 0.66 0 1 0 C1 13.2 1 26.4 1 40 C0.34 40 -0.32 40 -1 40 C-6.60722189 28.27580878 -7.13042153 17.16203828 -2.81640625 4.875 C-2 3 -2 3 0 0 Z " fill="#FCFCFC" transform="translate(250,61)"/>
<path d="M0 0 C-0.7734375 0.40089844 -1.546875 0.80179688 -2.34375 1.21484375 C-10.64133057 5.7435975 -18.18275143 11.01506114 -22 20 C-22.48543173 22.71841768 -22.80791059 25.25714198 -23 28 C-23.09861328 29.40378906 -23.09861328 29.40378906 -23.19921875 30.8359375 C-23.60398453 41.69482633 -20.26127886 49.94788879 -13 58 C-11.07449029 59.83018744 -9.12368581 61.3841521 -7 63 C-6.21625 63.598125 -5.4325 64.19625 -4.625 64.8125 C-3.820625 65.4003125 -3.820625 65.4003125 -3 66 C-9.81673804 65.0296032 -14.68479238 61.0352722 -18.80859375 55.62890625 C-25.09065463 45.58700844 -27.57911917 36.11941319 -25.53125 24.29296875 C-22.74234725 13.4859706 -15.07752515 5.66944914 -5.6875 0 C-3 -1 -3 -1 0 0 Z " fill="#E8E4F7" transform="translate(47,34)"/>
<path d="M0 0 C5.62118025 4.0264072 9.18207279 8.225116 11 15 C11 16.98 11 18.96 11 21 C6.05 20.67 1.1 20.34 -4 20 C-2.68 19.34 -1.36 18.68 0 18 C-0.2475 16.948125 -0.495 15.89625 -0.75 14.8125 C-1 11 -1 11 0.9375 8.1875 C1.618125 7.465625 2.29875 6.74375 3 6 C3 5.34 3 4.68 3 4 C2.01 3.67 1.02 3.34 0 3 C0 2.01 0 1.02 0 0 Z " fill="#4329B2" transform="translate(81,37)"/>
<path d="M0 0 C5.2518167 -0.315109 8.54814877 0.1310292 13 3 C17.0464893 7.27129426 18.89329504 10.86590088 19.1875 16.75 C19 20 19 20 18 21 C15.32941149 21.14115161 12.67567762 21.04247107 10 21 C10 20.67 10 20.34 10 20 C11.65 20 13.3 20 15 20 C14.89386164 17.54775306 14.89386164 17.54775306 14 15 C11.52363988 13.62533375 11.52363988 13.62533375 9 13 C9.33 11.35 9.66 9.7 10 8 C10.66 8 11.32 8 12 8 C12 7.34 12 6.68 12 6 C11.34 5.67 10.68 5.34 10 5 C9.34 5.66 8.68 6.32 8 7 C8 6.34 8 5.68 8 5 C7.01 4.67 6.02 4.34 5 4 C4.34 3.34 3.68 2.68 3 2 C2.01 1.34 1.02 0.68 0 0 Z " fill="#5843B9" transform="translate(68,81)"/>
<path d="M0 0 C2.17585822 3.26378733 2.24605016 4.15904315 2.22705078 7.93041992 C2.22689972 8.93123093 2.22674866 9.93204193 2.22659302 10.96318054 C2.21627045 12.04138565 2.20594788 13.11959076 2.1953125 14.23046875 C2.1924826 15.33602615 2.18965271 16.44158356 2.18673706 17.5806427 C2.17553002 21.11637128 2.15042427 24.6518478 2.125 28.1875 C2.11497089 30.58267864 2.10584492 32.97786124 2.09765625 35.37304688 C2.07558897 41.24878411 2.04210618 47.12437405 2 53 C1.67 53 1.34 53 1 53 C-0.24382373 47.37357163 -0.4021811 41.80581343 -0.625 36.0625 C-0.67003662 34.92055176 -0.71507324 33.77860352 -0.76147461 32.60205078 C-1.1245926 21.69341274 -0.70897368 10.88547276 0 0 Z " fill="#52D3AB" transform="translate(151,49)"/>
<path d="M0 0 C1.65 0.33 3.3 0.66 5 1 C4.38858197 4.56660516 3.35642381 7.65415459 2 11 C2 11.66 2 12.32 2 13 C2.99 13.33 3.98 13.66 5 14 C4.67 14.99 4.34 15.98 4 17 C0.28111761 16.49287967 -2.73454239 15.88391785 -6 14 C-6 12.02 -6 10.04 -6 8 C-5.34 8 -4.68 8 -4 8 C-4 8.99 -4 9.98 -4 11 C-3.34 11 -2.68 11 -2 11 C-2.33 10.01 -2.66 9.02 -3 8 C-3 4 -3 4 -2 2 C-1.34 2 -0.68 2 0 2 C0 1.34 0 0.68 0 0 Z " fill="#31A57A" transform="translate(177,58)"/>
<path d="M0 0 C3.63 0 7.26 0 11 0 C10.360625 0.515625 9.72125 1.03125 9.0625 1.5625 C6.37338428 4.74054585 6.07369166 6.87326713 6 11 C7.47505802 14.31888055 9.48454617 15.34667743 12.6875 16.75 C13.780625 17.1625 14.87375 17.575 16 18 C15.34 18.99 14.68 19.98 14 21 C13.236875 20.690625 12.47375 20.38125 11.6875 20.0625 C9.81210323 19.32106407 7.91315348 18.63771783 6 18 C2.19407793 12.35711554 0.37438339 6.73890104 0 0 Z " fill="#10926B" transform="translate(154,104)"/>
<path d="M0 0 C3.63 0.66 7.26 1.32 11 2 C11 2.66 11 3.32 11 4 C11.66 4 12.32 4 13 4 C12.67 4.66 12.34 5.32 12 6 C11.67 6.99 11.34 7.98 11 9 C10.01 9.495 10.01 9.495 9 10 C9.33 10.66 9.66 11.32 10 12 C7.69 12 5.38 12 3 12 C3 10.68 3 9.36 3 8 C2.01 7.67 1.02 7.34 0 7 C0 4.69 0 2.38 0 0 Z " fill="#42A17D" transform="translate(159,59)"/>
<path d="M0 0 C0.33 0 0.66 0 1 0 C1 23.76 1 47.52 1 72 C1.99 72.33 2.98 72.66 4 73 C4.33 75.97 4.66 78.94 5 82 C0.60269424 76.7516028 -0.12508336 73.67409904 -0.11352539 66.86645508 C-0.11367142 66.14425278 -0.11381744 65.42205048 -0.1139679 64.67796326 C-0.11327145 62.29178866 -0.1054916 59.90569221 -0.09765625 57.51953125 C-0.09579112 55.8647211 -0.09436766 54.20991039 -0.09336853 52.55509949 C-0.08955085 48.20018997 -0.07972695 43.84531382 -0.06866455 39.49041748 C-0.05843433 35.04635062 -0.05386745 30.60227837 -0.04882812 26.15820312 C-0.03810402 17.43878677 -0.02103657 8.71939754 0 0 Z " fill="#3ECCA0" transform="translate(128,35)"/>
<path d="M0 0 C1.41623216 -0.05447047 2.83308191 -0.09300508 4.25 -0.125 C5.03890625 -0.14820313 5.8278125 -0.17140625 6.640625 -0.1953125 C9.20731941 0.0171622 10.7916067 0.71345895 13 2 C10.2780754 3.3609623 8.8168043 2.70366248 5.875 2.0625 C4.96492188 1.86785156 4.05484375 1.67320313 3.1171875 1.47265625 C2.41851562 1.31667969 1.71984375 1.16070312 1 1 C0.67 3.97 0.34 6.94 0 10 C-3.88802156 10.83859288 -6.22297462 11.3306491 -9.9375 9.75 C-10.618125 9.1725 -11.29875 8.595 -12 8 C-12 7.01 -12 6.02 -12 5 C-10.68 4.34 -9.36 3.68 -8 3 C-8 3.99 -8 4.98 -8 6 C-7.34 5.34 -6.68 4.68 -6 4 C-6.33 3.01 -6.66 2.02 -7 1 C-4.69 1.33 -2.38 1.66 0 2 C0 1.34 0 0.68 0 0 Z " fill="#52C39C" transform="translate(190,60)"/>
<path d="M0 0 C1.44202286 -0.00461494 1.44202286 -0.00461494 2.91317749 -0.00932312 C3.94552521 -0.0021376 4.97787292 0.00504791 6.04150391 0.01245117 C7.10922028 0.01290939 8.17693665 0.01336761 9.27700806 0.01383972 C11.534781 0.01685954 13.7925519 0.02473775 16.05029297 0.03710938 C19.49795966 0.05531375 22.94535675 0.05761931 26.39306641 0.05737305 C28.58838122 0.06229061 30.78369422 0.06811996 32.97900391 0.07495117 C34.52145279 0.07662041 34.52145279 0.07662041 36.09506226 0.07832336 C40.88678039 0.10991574 45.43271822 0.24140899 50.14306641 1.24291992 C50.14306641 1.57291992 50.14306641 1.90291992 50.14306641 2.24291992 C49.54917618 2.24069931 48.95528595 2.2384787 48.34339905 2.2361908 C42.12973638 2.21396748 35.91608511 2.19894254 29.70239258 2.18798828 C27.38728374 2.18297757 25.07217804 2.17616721 22.75708008 2.16748047 C19.41828637 2.1552715 16.07953472 2.14965884 12.74072266 2.14526367 C11.71535904 2.14010239 10.68999542 2.1349411 9.63356018 2.12962341 C3.71881091 2.12916771 -1.99094049 2.47548126 -7.85693359 3.24291992 C-8.18693359 4.23291992 -8.51693359 5.22291992 -8.85693359 6.24291992 C-9.84693359 5.91291992 -10.83693359 5.58291992 -11.85693359 5.24291992 C-8.32072669 1.35309232 -5.25168124 -0.00887225 0 0 Z " fill="#8169E7" transform="translate(51.85693359375,32.757080078125)"/>
<path d="M0 0 C0.66 0.33 1.32 0.66 2 1 C2.60383547 4.65149561 2.74506916 8.30350275 3 12 C-1.29 11.67 -5.58 11.34 -10 11 C-10 10.01 -10 9.02 -10 8 C-9.01 8 -8.02 8 -7 8 C-6.67 6.68 -6.34 5.36 -6 4 C-5.34 4 -4.68 4 -4 4 C-3.67 3.34 -3.34 2.68 -3 2 C-3 2.99 -3 3.98 -3 5 C-2.01 5.33 -1.02 5.66 0 6 C-0.185625 5.38125 -0.37125 4.7625 -0.5625 4.125 C-1 2 -1 2 0 0 Z " fill="#45C197" transform="translate(188,72)"/>
<path d="M0 0 C1.32 0 2.64 0 4 0 C4.99 0.33 5.98 0.66 7 1 C6.34 2.65 5.68 4.3 5 6 C5.66 6 6.32 6 7 6 C6.67 7.32 6.34 8.64 6 10 C5.34 10 4.68 10 4 10 C4 9.01 4 8.02 4 7 C3.34 7 2.68 7 2 7 C2 8.98 2 10.96 2 13 C0.02 13.99 0.02 13.99 -2 15 C-2 14.34 -2 13.68 -2 13 C-1.34 13 -0.68 13 0 13 C-0.99 11.02 -1.98 9.04 -3 7 C-1.02 6.01 0.96 5.02 3 4 C2.34 4 1.68 4 1 4 C1 3.34 1 2.68 1 2 C-1.31 2 -3.62 2 -6 2 C-6.33 1.34 -6.66 0.68 -7 0 C-4.31031097 -1.34484451 -2.8977573 -0.62094799 0 0 Z " fill="#49C498" transform="translate(169,59)"/>
<path d="M0 0 C1.35546875 2.171875 1.35546875 2.171875 2 4 C1.23816406 3.57847656 0.47632813 3.15695313 -0.30859375 2.72265625 C-6.71830849 -0.67825357 -11.7299052 -2.75766351 -19 -3 C-19 -2.34 -19 -1.68 -19 -1 C-20.98 -1 -22.96 -1 -25 -1 C-24.67 -0.01 -24.34 0.98 -24 2 C-24.99 2.33 -25.98 2.66 -27 3 C-27 1.02 -27 -0.96 -27 -3 C-16.86212896 -5.84571819 -9.3499144 -5.39145292 0 0 Z " fill="#E9F7F2" transform="translate(209,63)"/>
<path d="M0 0 C0.99 0 1.98 0 3 0 C3.474375 1.11375 3.94875 2.2275 4.4375 3.375 C5.25306463 5.26710994 6.07856355 7.15712709 7 9 C6.34 9 5.68 9 5 9 C5 10.65 5 12.3 5 14 C5.99 14.33 6.98 14.66 8 15 C7.67 22.92 7.34 30.84 7 39 C6.67 39 6.34 39 6 39 C5.92652344 37.42025391 5.92652344 37.42025391 5.8515625 35.80859375 C5.47387962 17.30718926 5.47387962 17.30718926 0 0 Z " fill="#5E3DEA" transform="translate(88,45)"/>
<path d="M0 0 C0.99 0.66 1.98 1.32 3 2 C2.01 3.485 2.01 3.485 1 5 C1.66 5 2.32 5 3 5 C3.33 5.99 3.66 6.98 4 8 C1.45886142 8.22333047 -1.08172584 8.42902091 -3.625 8.625 C-4.33785156 8.68945312 -5.05070312 8.75390625 -5.78515625 8.8203125 C-10.34488399 9.15497142 -13.68688582 8.78239103 -18 7 C-14.8703842 6.06839344 -12.13169204 5.92222825 -8.875 6 C-5.29616131 6.15316487 -5.29616131 6.15316487 -2 5 C-1.27840576 3.35636866 -0.60648579 1.68949614 0 0 Z " fill="#6247D5" transform="translate(60,92)"/>
<path d="M0 0 C2.97 0.33 5.94 0.66 9 1 C9 1.33 9 1.66 9 2 C4.18867302 3.91261829 -0.12969327 4.26715165 -5.2421875 4.1953125 C-6.01055939 4.1924826 -6.77893127 4.18965271 -7.57058716 4.18673706 C-10.00555521 4.17561311 -12.44014462 4.1505236 -14.875 4.125 C-16.53384882 4.11496011 -18.19270346 4.10583603 -19.8515625 4.09765625 C-23.90118579 4.07569937 -27.95052887 4.04122406 -32 4 C-32 3.67 -32 3.34 -32 3 C-16.655 2.505 -16.655 2.505 -1 2 C-0.67 1.34 -0.34 0.68 0 0 Z " fill="#65D6B3" transform="translate(193,124)"/>
<path d="M0 0 C1.65 0.33 3.3 0.66 5 1 C4.67 2.65 4.34 4.3 4 6 C3.360625 6.103125 2.72125 6.20625 2.0625 6.3125 C1.381875 6.539375 0.70125 6.76625 0 7 C-0.33 7.99 -0.66 8.98 -1 10 C-1.99 9.01 -2.98 8.02 -4 7 C-3.34 5.35 -2.68 3.7 -2 2 C-1.34 2 -0.68 2 0 2 C0 1.34 0 0.68 0 0 Z " fill="#4CB791" transform="translate(177,58)"/>
<path d="M0 0 C0 1.98 0 3.96 0 6 C-3.3 6 -6.6 6 -10 6 C-9.625 3.5625 -9.625 3.5625 -9 1 C-6.04335481 -0.4783226 -3.25770263 -0.06032783 0 0 Z " fill="#3E27A6" transform="translate(83,95)"/>
<path d="M0 0 C1.79408332 0.6180287 3.58520478 1.24466081 5.375 1.875 C6.87160156 2.39707031 6.87160156 2.39707031 8.3984375 2.9296875 C11 4 11 4 13 6 C13 7.32 13 8.64 13 10 C13.99 10.33 14.98 10.66 16 11 C14.02 11.66 12.04 12.32 10 13 C10.33 11.35 10.66 9.7 11 8 C9.02 7.01 7.04 6.02 5 5 C5 4.34 5 3.68 5 3 C4.01 3 3.02 3 2 3 C2 3.66 2 4.32 2 5 C1.01 4.67 0.02 4.34 -1 4 C-0.34 4 0.32 4 1 4 C0.67 2.68 0.34 1.36 0 0 Z " fill="#826FDB" transform="translate(52,74)"/>
<path d="M0 0 C1.41623216 -0.05447047 2.83308191 -0.09300508 4.25 -0.125 C5.03890625 -0.14820313 5.8278125 -0.17140625 6.640625 -0.1953125 C9.20731941 0.0171622 10.7916067 0.71345895 13 2 C10.2780754 3.3609623 8.8168043 2.70366248 5.875 2.0625 C4.96492187 1.86785156 4.05484375 1.67320313 3.1171875 1.47265625 C2.41851562 1.31667969 1.71984375 1.16070312 1 1 C0.67 3.97 0.34 6.94 0 10 C-1.32 9.67 -2.64 9.34 -4 9 C-3.67 6.36 -3.34 3.72 -3 1 C-2.01 1.33 -1.02 1.66 0 2 C0 1.34 0 0.68 0 0 Z " fill="#8BDFC4" transform="translate(190,60)"/>
<path d="M0 0 C1.61949011 2.57213134 2.04408751 3.67669159 1.625 6.75 C1.41875 7.4925 1.2125 8.235 1 9 C0.34 7.68 -0.32 6.36 -1 5 C-1.33 6.65 -1.66 8.3 -2 10 C-3.65 10 -5.3 10 -7 10 C-6.34 9.67 -5.68 9.34 -5 9 C-5.66 7.02 -6.32 5.04 -7 3 C-6 2 -6 2 -2.9375 1.9375 C-1.4834375 1.9684375 -1.4834375 1.9684375 0 2 C0 1.34 0 0.68 0 0 Z " fill="#32CF9D" transform="translate(190,68)"/>
<path d="M0 0 C1.875 0.25 1.875 0.25 4 1 C5.25 3.0625 5.25 3.0625 6 5 C6.99 5 7.98 5 9 5 C9.66 5.66 10.32 6.32 11 7 C10.625 9.625 10.625 9.625 10 12 C2.15820313 5.5546875 2.15820313 5.5546875 0 2 C0 1.34 0 0.68 0 0 Z " fill="#6A4BF0" transform="translate(28,84)"/>
<path d="M0 0 C1.33332095 2.6666419 0.67102033 4.16680303 0 7 C0.99 7.33 1.98 7.66 3 8 C2.01 8.495 2.01 8.495 1 9 C0.92962598 11.53346458 0.92897362 13.7237863 1.5625 16.1875 C2 18 2 18 1 20 C-2.58007425 16.41992575 -1.96829068 10.87055176 -2 6 C-1.0625 2.25 -1.0625 2.25 0 0 Z " fill="#5E3EE7" transform="translate(56,77)"/>
<path d="M0 0 C5.26053037 -0.31563182 8.44573816 0.33409063 13 3 C13 3.99 13 4.98 13 6 C12.01 5.67 11.02 5.34 10 5 C9.34 5.66 8.68 6.32 8 7 C8 6.34 8 5.68 8 5 C7.01 4.67 6.02 4.34 5 4 C4.34 3.34 3.68 2.68 3 2 C2.01 1.34 1.02 0.68 0 0 Z " fill="#644DC9" transform="translate(68,81)"/>
<path d="M0 0 C0.66 0 1.32 0 2 0 C2.33 2.97 2.66 5.94 3 9 C2.67 8.01 2.34 7.02 2 6 C0.02 6.33 -1.96 6.66 -4 7 C-4.33 5.35 -4.66 3.7 -5 2 C-4.01 1.67 -3.02 1.34 -2 1 C-1.34 1.33 -0.68 1.66 0 2 C0 1.34 0 0.68 0 0 Z " fill="#6A53CF" transform="translate(70,84)"/>
<path d="M0 0 C1.1725131 0.95117134 2.33787015 1.91117009 3.5 2.875 C4.47453125 3.67550781 4.47453125 3.67550781 5.46875 4.4921875 C5.9740625 4.98976563 6.479375 5.48734375 7 6 C7 6.66 7 7.32 7 8 C6.01 8.33 5.02 8.66 4 9 C2.78130071 11.50447516 2.78130071 11.50447516 2 14 C1.34 14 0.68 14 0 14 C-0.33 13.01 -0.66 12.02 -1 11 C0.28725907 9.29749607 1.62131719 7.62935241 3 6 C3 5.34 3 4.68 3 4 C2.01 3.67 1.02 3.34 0 3 C0 2.01 0 1.02 0 0 Z " fill="#4529BB" transform="translate(81,37)"/>
<path d="M0 0 C1.75570312 0.02707031 1.75570312 0.02707031 3.546875 0.0546875 C4.88492188 0.08949219 4.88492188 0.08949219 6.25 0.125 C6.25 0.455 6.25 0.785 6.25 1.125 C0.97 1.785 -4.31 2.445 -9.75 3.125 C-10.08 4.115 -10.41 5.105 -10.75 6.125 C-11.74 5.795 -12.73 5.465 -13.75 5.125 C-9.55881189 0.51469307 -6.17965765 -0.12359315 0 0 Z " fill="#927DEC" transform="translate(53.75,32.875)"/>
<path d="M0 0 C3.96 0 7.92 0 12 0 C11.67 0.99 11.34 1.98 11 3 C8.69 2.67 6.38 2.34 4 2 C4 2.99 4 3.98 4 5 C3.01 5 2.02 5 1 5 C0.67 3.35 0.34 1.7 0 0 Z " fill="#BDB4E5" transform="translate(64,79)"/>
<path d="M0 0 C1.32 0 2.64 0 4 0 C4.99 0.33 5.98 0.66 7 1 C5.6875 2.5 5.6875 2.5 4 4 C3.01 4 2.02 4 1 4 C1 3.34 1 2.68 1 2 C-1.31 2 -3.62 2 -6 2 C-6.33 1.34 -6.66 0.68 -7 0 C-4.31031097 -1.34484451 -2.8977573 -0.62094799 0 0 Z " fill="#78C8AB" transform="translate(169,59)"/>
<path d="M0 0 C0.99 0.33 1.98 0.66 3 1 C1.48328036 5.55015893 -2.16891053 7.50057264 -6 10 C-6.66 9.67 -7.32 9.34 -8 9 C-6.11403282 7.11403282 -4.22067931 5.23880305 -2.3125 3.375 C0.11626945 1.43306441 0.11626945 1.43306441 0 0 Z " fill="#3ED7A7" transform="translate(210,115)"/>
<path d="M0 0 C3.14575332 1.41137593 5.45266773 3.12400487 8 5.4375 C10.58061627 7.77114323 13.18881369 9.94808499 16 12 C11.90652669 11.45661859 9.53579045 10.24314794 6.3125 7.6875 C5.54550781 7.09324219 4.77851562 6.49898438 3.98828125 5.88671875 C2.01226386 4.01163741 1.03093065 2.49738815 0 0 Z " fill="#EEECF9" transform="translate(28,88)"/>
<path d="M0 0 C0.99 0.33 1.98 0.66 3 1 C3.28571429 8.42857143 3.28571429 8.42857143 1 12 C-0.41404314 8.19975907 -1.34892324 5.07077118 -1 1 C-0.67 0.67 -0.34 0.34 0 0 Z " fill="#492EC4" transform="translate(57,85)"/>
<path d="M0 0 C0.99 0.33 1.98 0.66 3 1 C1.54955729 5.10958767 -0.51110752 8.43258745 -3 12 C-3.66 11.01 -4.32 10.02 -5 9 C-4.34 9 -3.68 9 -3 9 C-2.87625 7.88625 -2.7525 6.7725 -2.625 5.625 C-2 2 -2 2 0 0 Z " fill="#4AD6AB" transform="translate(218,105)"/>
<path d="M0 0 C0.99 0.33 1.98 0.66 3 1 C3 3.64 3 6.28 3 9 C1.35 7.35 -0.3 5.7 -2 4 C-1.34 2.68 -0.68 1.36 0 0 Z " fill="#6949F2" transform="translate(99,112)"/>
<path d="M0 0 C2.31 0.66 4.62 1.32 7 2 C7 2.99 7 3.98 7 5 C4.3333581 6.33332095 2.83319697 5.67102033 0 5 C0 3.35 0 1.7 0 0 Z " fill="#5339C6" transform="translate(56,79)"/>
<path d="M0 0 C3 1.1875 3 1.1875 5 3.1875 C3.375 4.375 3.375 4.375 1 5.1875 C-2.25 3.8125 -2.25 3.8125 -5 2.1875 C-5 1.5275 -5 0.8675 -5 0.1875 C-3 -0.8125 -3 -0.8125 0 0 Z " fill="#12AF80" transform="translate(165,119.8125)"/>
<path d="M0 0 C1.32 0 2.64 0 4 0 C4.33 2.97 4.66 5.94 5 9 C3.68 8.34 2.36 7.68 1 7 C0.25 3.375 0.25 3.375 0 0 Z " fill="#09835E" transform="translate(154,104)"/>
<path d="M0 0 C3.62528568 -0.20140476 5.86501708 0.14223235 9 2 C8.67 2.99 8.34 3.98 8 5 C5.125 4.75 5.125 4.75 2 4 C0.625 1.9375 0.625 1.9375 0 0 Z " fill="#4BC69B" transform="translate(173,70)"/>
<path d="M0 0 C5 2 5 2 10 4 C9.67 5.32 9.34 6.64 9 8 C8.34 7.34 7.68 6.68 7 6 C5.989375 5.71125 4.97875 5.4225 3.9375 5.125 C2.968125 4.75375 1.99875 4.3825 1 4 C0.125 1.875 0.125 1.875 0 0 Z " fill="#8B75E9" transform="translate(103,35)"/>
<path d="M0 0 C0.66 0.33 1.32 0.66 2 1 C2.6328125 3.28515625 2.6328125 3.28515625 3.125 6.0625 C3.29257813 6.98160156 3.46015625 7.90070313 3.6328125 8.84765625 C3.75398437 9.55792969 3.87515625 10.26820312 4 11 C2.078125 10.66015625 2.078125 10.66015625 0 10 C-1.25 7.4375 -1.25 7.4375 -2 5 C-1.01 4.67 -0.02 4.34 1 4 C0.67 2.68 0.34 1.36 0 0 Z " fill="#35D7A6" transform="translate(218,76)"/>
<path d="M0 0 C0.33 1.32 0.66 2.64 1 4 C-5.27 4 -11.54 4 -18 4 C-18 3.67 -18 3.34 -18 3 C-16.95199219 2.95101562 -15.90398437 2.90203125 -14.82421875 2.8515625 C-13.44528646 2.77651857 -12.0663815 2.70097143 -10.6875 2.625 C-9.99720703 2.5940625 -9.30691406 2.563125 -8.59570312 2.53125 C-4.93009211 2.31875081 -3.12099208 2.08066139 0 0 Z " fill="#7DD7BB" transform="translate(195,99)"/>
<path d="M0 0 C1.34910266 2.69820532 0.97774099 5.07634275 0.83984375 8.02734375 C0.86565578 10.32449615 0.86565578 10.32449615 3 13 C0.525 12.01 0.525 12.01 -2 11 C-2.25 3.375 -2.25 3.375 0 0 Z " fill="#826BE3" transform="translate(49,61)"/>
<path d="M0 0 C4.29 0 8.58 0 13 0 C13 0.99 13 1.98 13 3 C8.17639811 3.19294408 4.50353262 2.75747614 0 1 C0 0.67 0 0.34 0 0 Z " fill="#795FE8" transform="translate(42,98)"/>
<path d="M0 0 C2.97 0.495 2.97 0.495 6 1 C6 1.66 6 2.32 6 3 C6.66 3.66 7.32 4.32 8 5 C7.01 6.485 7.01 6.485 6 8 C5.34 7.67 4.68 7.34 4 7 C4 5.35 4 3.7 4 2 C3.34 2 2.68 2 2 2 C2 2.66 2 3.32 2 4 C1.34 4 0.68 4 0 4 C0 2.68 0 1.36 0 0 Z " fill="#4328B6" transform="translate(68,82)"/>
<path d="M0 0 C0.66 0 1.32 0 2 0 C2 1.32 2 2.64 2 4 C2.598125 3.79375 3.19625 3.5875 3.8125 3.375 C6 3 6 3 9 5 C8.34 5 7.68 5 7 5 C6.67 6.32 6.34 7.64 6 9 C5.34 9 4.68 9 4 9 C3.67 8.01 3.34 7.02 3 6 C2.34 5.67 1.68 5.34 1 5 C0.375 2.4375 0.375 2.4375 0 0 Z " fill="#78B8A0" transform="translate(160,67)"/>
<path d="M0 0 C3.3 0 6.6 0 10 0 C10.33 0.99 10.66 1.98 11 3 C9.9171875 2.7525 9.9171875 2.7525 8.8125 2.5 C6.13572455 2.02412881 3.71050513 1.922557 1 2 C0.67 3.32 0.34 4.64 0 6 C0 4.02 0 2.04 0 0 Z " fill="#DAEEE7" transform="translate(158,57)"/>
<path d="M0 0 C0.66 0.33 1.32 0.66 2 1 C2.4140625 3.28515625 2.4140625 3.28515625 2.625 6.0625 C2.69976562 6.98160156 2.77453125 7.90070313 2.8515625 8.84765625 C2.92503906 9.91306641 2.92503906 9.91306641 3 11 C2.01 10.67 1.02 10.34 0 10 C-1.125 2.25 -1.125 2.25 0 0 Z " fill="#4CB895" transform="translate(188,72)"/>
<path d="M0 0 C0.33 0.66 0.66 1.32 1 2 C1.66 2.33 2.32 2.66 3 3 C2.67 3.99 2.34 4.98 2 6 C2.66 6 3.32 6 4 6 C4 6.99 4 7.98 4 9 C2.35 8.67 0.7 8.34 -1 8 C-1 7.34 -1 6.68 -1 6 C-0.34 6 0.32 6 1 6 C1 5.34 1 4.68 1 4 C0.01 3.67 -0.98 3.34 -2 3 C-1.34 3 -0.68 3 0 3 C0 2.01 0 1.02 0 0 Z " fill="#4328BA" transform="translate(69,88)"/>
<path d="M0 0 C0.66 0.33 1.32 0.66 2 1 C2.40729228 3.32156597 2.74438677 5.6568787 3 8 C1.68 8 0.36 8 -1 8 C-1 4.88742431 -0.82638376 2.89234315 0 0 Z " fill="#3B1EAC" transform="translate(89,48)"/>
<path d="M0 0 C0.99 0.33 1.98 0.66 3 1 C2.34 1 1.68 1 1 1 C1 1.66 1 2.32 1 3 C1.66 3.33 2.32 3.66 3 4 C2.67 4.66 2.34 5.32 2 6 C-0.0625 6.625 -0.0625 6.625 -2 7 C-2.125 4.625 -2.125 4.625 -2 2 C-1.34 1.34 -0.68 0.68 0 0 Z " fill="#5036C1" transform="translate(64,85)"/>
<path d="M0 0 C4.95 0.99 4.95 0.99 10 2 C10.33 2.99 10.66 3.98 11 5 C7.44765442 4.39102647 4.2668126 3.54266151 1 2 C0.67 1.34 0.34 0.68 0 0 Z " fill="#62D7B3" transform="translate(138,122)"/>
<path d="M0 0 C2.475 0.495 2.475 0.495 5 1 C5.33 2.98 5.66 4.96 6 7 C5.34 7 4.68 7 4 7 C4 5.68 4 4.36 4 3 C2.68 2.67 1.36 2.34 0 2 C0 1.34 0 0.68 0 0 Z " fill="#90C6B3" transform="translate(178,69)"/>
<path d="M0 0 C0.33 1.32 0.66 2.64 1 4 C1.99 3.67 2.98 3.34 4 3 C4 3.66 4 4.32 4 5 C3.34 5 2.68 5 2 5 C1.67 5.66 1.34 6.32 1 7 C0.67 6.01 0.34 5.02 0 4 C-0.66 4 -1.32 4 -2 4 C-1.34 2.68 -0.68 1.36 0 0 Z " fill="#432EA1" transform="translate(63,93)"/>
<path d="M0 0 C1.42944945 2.35438733 2.08661261 3.48032433 1.625 6.25 C1.41875 6.8275 1.2125 7.405 1 8 C-0.32 6.68 -1.64 5.36 -3 4 C-2.01 3.67 -1.02 3.34 0 3 C0 2.01 0 1.02 0 0 Z " fill="#44D9AB" transform="translate(196,81)"/>
<path d="M0 0 C2.4375 0.75 2.4375 0.75 5 2 C5.8125 4.125 5.8125 4.125 6 6 C4.35 5.67 2.7 5.34 1 5 C0.67 3.35 0.34 1.7 0 0 Z " fill="#75C2A7" transform="translate(185,78)"/>
<path d="M0 0 C1.32 0 2.64 0 4 0 C3.67 2.64 3.34 5.28 3 8 C1.58622659 5.36095629 0.62759865 2.92879371 0 0 Z " fill="#58CDA6" transform="translate(183,61)"/>
<path d="M0 0 C0 0.66 0 1.32 0 2 C-0.99 2.33 -1.98 2.66 -3 3 C-2.67 3.99 -2.34 4.98 -2 6 C-2.99 6.33 -3.98 6.66 -5 7 C-5 5.02 -5 3.04 -5 1 C-2 0 -2 0 0 0 Z " fill="#B1E2D1" transform="translate(187,59)"/>
<path d="M0 0 C2.31 1.98 4.62 3.96 7 6 C6.01 6.33 5.02 6.66 4 7 C3.67 6.01 3.34 5.02 3 4 C2.01 3.67 1.02 3.34 0 3 C0 2.01 0 1.02 0 0 Z " fill="#4526C9" transform="translate(81,37)"/>
</svg>
